<svg width="19" height="19" viewBox="0 0 19 19" fill="none" xmlns="http://www.w3.org/2000/svg">
    <g clip-path="url(#clip0_9061_25616)">
        <path
            d="M13.0617 0C12.0487 0.0700621 10.8648 0.718433 10.1749 1.56274C9.5455 2.32867 9.02775 3.46629 9.22962 4.57185C10.3364 4.60629 11.4799 3.94248 12.1425 3.08392C12.7624 2.28474 13.2315 1.15424 13.0617 0Z"
            fill="white" />
        <path
            d="M17.0647 6.37457C16.0922 5.15501 14.7254 4.44727 13.4345 4.44727C11.7305 4.44727 11.0097 5.26307 9.82575 5.26307C8.60501 5.26307 7.67758 4.44964 6.2039 4.44964C4.75635 4.44964 3.21498 5.33432 2.23767 6.84719C0.863743 8.97755 1.09887 12.983 3.32542 16.3946C4.12222 17.6154 5.18622 18.9881 6.57796 19C7.81651 19.0119 8.16564 18.2056 9.84357 18.1972C11.5215 18.1877 11.8397 19.0107 13.0759 18.9976C14.4689 18.9869 15.591 17.4658 16.3878 16.245C16.959 15.3698 17.1716 14.9293 17.6145 13.9413C14.3929 12.7146 13.8763 8.13324 17.0647 6.37457Z"
            fill="white" />
    </g>
    <defs>
        <clipPath id="clip0_9061_25616">
            <rect width="19" height="19" fill="white" />
        </clipPath>
    </defs>
</svg>
    